<svg viewBox="0 0 900 170" xmlns="http://www.w3.org/2000/svg" role="img" aria-label="PRISM: 30-Day Bridge Course logo">
  <defs>
    <linearGradient id="prismLogoGrad" x1="15%" y1="10%" x2="90%" y2="95%">
      <stop offset="0%" stop-color="#F59E0B" />
      <stop offset="55%" stop-color="#CF3E30" />
      <stop offset="100%" stop-color="#A82042" />
    </linearGradient>
  </defs>

  <!-- Icon tile -->
  <g transform="translate(10,10)">
    <rect x="2" y="2" width="146" height="146" rx="32" fill="#FFFFFF" stroke="#F1E0E3" stroke-width="2" />
    <polygon points="75,26 125,120 25,120" fill="url(#prismLogoGrad)" />
    <polygon points="71,26 81,26 57,120 46,120" fill="#FFFFFF" opacity="0.5" />
    <circle cx="44" cy="106" r="6" fill="#021152" />
    <circle cx="61" cy="90" r="7.5" fill="#821531" />
    <circle cx="80" cy="70" r="9" fill="#F59E0B" />
    <path d="M108 28 L112.5 38 L123 40.5 L112.5 43 L108 53 L103.5 43 L93 40.5 L103.5 38 Z" fill="#F59E0B" />
  </g>

  <!-- Wordmark -->
  <text x="182" y="90" font-family="Georgia, 'Times New Roman', serif" font-weight="700" font-size="66" fill="#A82042" letter-spacing="1">PRISM</text>
  <text x="185" y="117" font-family="Arial, Helvetica, sans-serif" font-weight="700" font-size="19" letter-spacing="3.5" fill="#334155">30-DAY BRIDGE COURSE</text>
  <rect x="185" y="128" width="560" height="3" rx="1.5" fill="#CF3E30" />
  <text x="185" y="152" font-family="Arial, Helvetica, sans-serif" font-weight="700" font-size="12.5" letter-spacing="1.4" fill="#64748B">PUBLIC HEALTH &#183; RESEARCH METHODS &#183; INFORMATICS &#183; STATISTICS &#183; MANAGEMENT</text>
</svg>
